<?xml version="1.0" encoding="UTF-8"?>
<!-- Created with Inkscape (http://www.inkscape.org/) -->
<svg width="14.154mm" height="14.738mm" version="1.1" viewBox="0 0 14.154 14.738" xmlns="http://www.w3.org/2000/svg">
 <g transform="translate(-53.018 -14.966)">
  <g transform="translate(-65.863 -11.651)">
   <g transform="translate(81.177 45.671)">
    <rect x="37.704" y="-19.054" width="14.154" height="14.738" fill="#007aa3" stroke-width=".22549"/>
    <g fill="#fff" stroke-width=".26458" aria-label="b">
     <path d="m44.887-7.8541q-.5715 0-1.0372-.23283-.45508-.24342-.73025-.66675t-.30692-.96308v-1.5134q.03175-.55033.30692-.96308.28575-.42333.74083-.65616.46566-.24342 1.0266-.24342.68791 0 1.2382.34925.56092.34925.87841.94191.3175.59266.3175 1.3335 0 .74083-.3175 1.3335t-.87841.94191q-.55033.33867-1.2382.33867zm-.15875-.89958q.47625 0 .83608-.22225t.5715-.60325q.21167-.39158.21167-.89958 0-.49742-.21167-.889t-.5715-.60325q-.35983-.22225-.8255-.22225-.47625 0-.83608.22225-.35983.21167-.56092.60325t-.20108.89958q0 .49742.1905.889.20108.381.56092.60325.37042.22225.83608.22225zm-2.4871.79375v-7.5565h.9525v3.7571l-.17992 1.2171.17992 1.2277v1.3547z"/>
    </g>
   </g>
  </g>
 </g>
</svg>
